<svg width="20" height="20" viewBox="0 0 20 20" fill="none" xmlns="http://www.w3.org/2000/svg">
<g clip-path="url(#clip0_3_853)">
<path d="M13.5448 6.45414C12.6453 5.55467 11.3755 4.97266 9.99984 4.97266C8.62418 4.97266 7.35434 5.52821 6.45487 6.45414C5.5554 7.35361 4.97339 8.62345 4.97339 9.99911C4.97339 11.3748 5.5554 12.6446 6.45487 13.5441C7.35434 14.4436 8.62418 15.0256 9.99984 15.0256C11.3755 15.0256 12.6453 14.47 13.5448 13.5441C14.4443 12.6446 15.0263 11.3748 15.0263 9.99911C15.0263 8.62345 14.4707 7.35361 13.5448 6.45414Z" fill="#858BB2"/>
<path d="M10.0001 3.4127C10.3705 3.4127 10.6879 3.09524 10.6879 2.72487V0.68783C10.6879 0.31746 10.3705 0 10.0001 0C9.62972 0 9.31226 0.31746 9.31226 0.68783V2.72487C9.31226 3.09524 9.62972 3.4127 10.0001 3.4127Z" fill="#858BB2"/>
<path d="M15.6349 5.3441L17.09 3.88908C17.3545 3.62453 17.3545 3.20124 17.09 2.93669C16.8254 2.67214 16.4021 2.67214 16.1376 2.93669L14.6825 4.39172C14.418 4.65627 14.418 5.07955 14.6825 5.3441C14.9206 5.60865 15.3439 5.60865 15.6349 5.3441Z" fill="#858BB2"/>
<path d="M19.3123 9.3125H17.2752C16.9049 9.3125 16.5874 9.62996 16.5874 10.0003C16.5874 10.3707 16.9049 10.6882 17.2752 10.6882H19.3123C19.6826 10.6882 20.0001 10.3707 20.0001 10.0003C20.0001 9.62996 19.6826 9.3125 19.3123 9.3125Z" fill="#858BB2"/>
<path d="M15.6083 14.6554C15.3438 14.3909 14.9205 14.3909 14.6559 14.6554C14.3914 14.92 14.3914 15.3433 14.6559 15.6078L16.111 17.0628C16.3755 17.3274 16.7988 17.3274 17.0633 17.0628C17.3279 16.7983 17.3279 16.375 17.0633 16.1105L15.6083 14.6554Z" fill="#858BB2"/>
<path d="M10.0001 16.5879C9.62972 16.5879 9.31226 16.9054 9.31226 17.2757V19.3128C9.31226 19.6831 9.62972 20.0006 10.0001 20.0006C10.3705 20.0006 10.6879 19.6831 10.6879 19.3128V17.2757C10.6879 16.9054 10.3705 16.5879 10.0001 16.5879Z" fill="#858BB2"/>
<path d="M4.36511 14.6554L2.91008 16.1105C2.64553 16.375 2.64553 16.7983 2.91008 17.0628C3.17463 17.3274 3.59791 17.3274 3.86246 17.0628L5.31749 15.6078C5.58204 15.3433 5.58204 14.92 5.31749 14.6554C5.07939 14.3909 4.65611 14.3909 4.36511 14.6554Z" fill="#858BB2"/>
<path d="M3.4127 10.0003C3.4127 9.62996 3.09524 9.3125 2.72487 9.3125H0.68783C0.31746 9.3125 0 9.62996 0 10.0003C0 10.3707 0.31746 10.6882 0.68783 10.6882H2.72487C3.09524 10.6882 3.4127 10.3707 3.4127 10.0003Z" fill="#858BB2"/>
<path d="M4.36511 5.3441C4.62966 5.60865 5.05294 5.60865 5.31749 5.3441C5.58204 5.07955 5.58204 4.65627 5.31749 4.39172L3.86246 2.93669C3.59791 2.67214 3.17463 2.67214 2.91008 2.93669C2.64553 3.20124 2.64553 3.62453 2.91008 3.88908L4.36511 5.3441Z" fill="#858BB2"/>
</g>
<defs>
<clipPath id="clip0_3_853">
<rect width="20" height="20" fill="white"/>
</clipPath>
</defs>
</svg>
